<svg width="174" height="174" viewBox="0 0 174 174" fill="none" xmlns="http://www.w3.org/2000/svg">
<path d="M113.678 113.08C114.707 117.646 118.792 121.068 123.664 121.068C128.536 121.068 132.622 117.646 133.651 113.08H140.749C141.992 113.08 143 112.073 143 110.83V89.2335C143 88.6268 142.759 88.0775 142.369 87.6727C142.414 87.629 142.442 87.6025 142.442 87.6025L125.727 68.521C125.727 68.521 125.687 68.5386 125.618 68.5664C125.205 68.0696 124.583 67.7531 123.886 67.7531H109.497V54.251C109.497 53.008 108.489 52 107.246 52H36.4666C35.2234 52 34.2157 53.008 34.2157 54.251V103.697H32.251C31.0077 103.697 30 104.705 30 105.948C30 107.191 31.0077 108.199 32.251 108.199H34.2157V110.83C34.2157 112.073 35.2234 113.081 36.4666 113.081H40.9025C41.9312 117.646 46.0166 121.068 50.8887 121.068C55.7607 121.068 59.8461 117.646 60.875 113.081H113.678V113.08H113.678ZM126.137 75.8212L135.914 86.9826H126.137V75.8212ZM104.995 94.1565H38.7176V56.5017H104.994V94.1565H104.995ZM38.7176 98.6584H104.994V108.578H60.8748C59.8461 104.013 55.7607 100.591 50.8884 100.591C46.0164 100.591 41.931 104.013 40.9023 108.578H38.7176C38.7176 108.578 38.7176 98.6584 38.7176 98.6584ZM50.8887 116.566C47.7256 116.566 45.1522 113.992 45.1522 110.83C45.1522 107.667 47.7256 105.093 50.8887 105.093C54.0518 105.093 56.6254 107.667 56.6254 110.83C56.6252 113.992 54.0518 116.566 50.8887 116.566ZM123.664 116.566C120.501 116.566 117.928 113.992 117.928 110.83C117.928 107.667 120.501 105.093 123.664 105.093C126.828 105.093 129.401 107.667 129.401 110.83C129.401 113.992 126.828 116.566 123.664 116.566ZM109.497 72.2548H121.635V89.2333C121.635 90.4763 122.643 91.4842 123.886 91.4842H138.498V108.578H133.651C132.622 104.013 128.536 100.591 123.664 100.591C118.792 100.591 114.707 104.013 113.678 108.578H109.496V72.2548H109.497Z" fill="#C4C4C4"/>
<path d="M99.5557 87.2092H80.6474C79.4042 87.2092 78.3965 88.2172 78.3965 89.4602C78.3965 90.7032 79.4042 91.7111 80.6474 91.7111H99.5557C100.799 91.7111 101.807 90.7032 101.807 89.4602C101.807 88.2172 100.799 87.2092 99.5557 87.2092Z" fill="#C4C4C4"/>
<path d="M73.6694 87.2092H72.3187C71.0755 87.2092 70.0678 88.2172 70.0678 89.4602C70.0678 90.7032 71.0755 91.7111 72.3187 91.7111H73.6694C74.9126 91.7111 75.9204 90.7032 75.9204 89.4602C75.9204 88.2172 74.9126 87.2092 73.6694 87.2092Z" fill="#C4C4C4"/>
<circle cx="87" cy="87" r="83" stroke="#C4C4C4" stroke-width="8"/>
</svg>
