<svg width="172" height="177" viewBox="0 0 172 177" fill="none" xmlns="http://www.w3.org/2000/svg">
<path d="M168 86.6815C168 132.375 131.258 169.363 86 169.363C40.7424 169.363 4 132.375 4 86.6815C4 40.9879 40.7424 4 86 4C131.258 4 168 40.9879 168 86.6815Z" stroke="#C4C4C4" stroke-width="8"/>
<path d="M61.8147 41.1342C65.6147 41.1342 68.5147 42.2009 70.5147 44.3342C71.7147 45.6009 72.6147 47.3342 73.2147 49.5342C73.8813 51.6676 74.2147 54.7009 74.2147 58.6342V66.2342H108.815V73.4342H74.2147V101.034C74.2147 104.168 74.6147 106.301 75.4147 107.434C76.2814 108.568 77.948 109.134 80.4147 109.134C83.148 109.134 85.8147 108.401 88.4147 106.934C91.0147 105.401 93.148 103.434 94.8147 101.034C96.548 98.6342 97.4147 96.1009 97.4147 93.4342C97.4147 90.1009 95.5147 88.4342 91.7147 88.4342C89.9147 88.4342 88.248 88.6342 86.7147 89.0342L85.7147 82.2342C86.848 81.9009 88.048 81.6676 89.3147 81.5342C90.648 81.3342 91.9814 81.2342 93.3147 81.2342C96.848 81.2342 99.7147 82.1342 101.915 83.9342C104.181 85.6676 105.315 88.5009 105.315 92.4342C105.315 95.5009 104.581 98.4676 103.115 101.334C101.715 104.134 99.8147 106.668 97.4147 108.934C95.0147 111.134 92.3147 112.868 89.3147 114.134C86.3147 115.401 83.248 116.034 80.1147 116.034C77.648 116.034 75.6147 115.768 74.0147 115.234C72.4147 114.634 71.0813 113.834 70.0147 112.834C69.0147 111.901 68.1813 110.668 67.5147 109.134C66.848 107.601 66.5147 105.034 66.5147 101.434V73.4342H56.8147V66.2342H66.5147V59.0342C66.5147 55.5676 66.1147 52.9342 65.3147 51.1342C64.5147 49.2676 62.6147 48.3342 59.6147 48.3342C58.348 48.3342 57.0813 48.5342 55.8147 48.9342C54.6147 49.2676 53.5813 49.6009 52.7147 49.9342L50.0147 43.7342C52.0147 42.8676 53.948 42.2342 55.8147 41.8342C57.748 41.3676 59.748 41.1342 61.8147 41.1342Z" fill="#C4C4C4"/>
</svg>
